<?xml version="1.0" encoding="UTF-8" standalone="no"?>
<svg width="601px" height="573px" viewBox="0 0 601 573" version="1.1" xmlns="http://www.w3.org/2000/svg" xmlns:xlink="http://www.w3.org/1999/xlink">
    <!-- Generator: Sketch 3.7.2 (28276) - http://www.bohemiancoding.com/sketch -->
    <title>halo-1 copy</title>
    <desc>Created with Sketch.</desc>
    <defs></defs>
    <g id="Page-1" stroke="none" stroke-width="1" fill="none" fill-rule="evenodd">
        <g id="halo-1-copy" transform="translate(0.000000, 1.000000)">
            <path d="M170.590625,570.5587 C97.6746249,535.5117 38.9756249,471.1407 13.3276249,387.4947 C-12.2853751,303.9587 0.175624907,217.8647 40.7866249,148.0187 C48.2616249,152.5167 67.0066249,163.1997 73.7396249,166.8597 C38.0906249,227.9277 27.1126249,303.2827 49.5296249,376.3947 C72.0266249,449.7657 123.642625,506.1557 187.711625,536.6717 C184.802625,541.6767 173.090625,565.3497 170.590625,570.5587" id="Combined-Shape" fill="#FFCC00"></path>
            <path d="M79,97.033 C133.832,37.383 212.51,0 299.919,0 C387.214,0 465.8,37.284 520.622,96.797 C514.136,102.646 498.442,117.488 492.975,122.872 C445.083,70.702 376.32,38 299.919,38 C223.247,38 154.267,70.935 106.354,123.429 C102.425,119.166 83.243,100.964 79,97.033 Z M557.248,147 C598.495,216.597 611.651,302.714 586.614,386.545 C561.61,470.265 503.501,535.002 430.976,570.609 C427.25,562.721 417.574,543.437 414,536.658 C477.529,505.604 528.448,448.982 550.332,375.709 C572.294,302.175 560.607,226.627 524.211,165.707 C529.406,163.155 552.279,149.948 557.248,147 Z" id="Combined-Shape" stroke="#FFFFFF" stroke-width="2" opacity="0.3"></path>
        </g>
    </g>
</svg>