<?xml version="1.0" encoding="UTF-8" standalone="no"?>
<svg width="601px" height="571px" viewBox="0 0 601 571" version="1.1" xmlns="http://www.w3.org/2000/svg" xmlns:xlink="http://www.w3.org/1999/xlink">
    <!-- Generator: Sketch 3.7.2 (28276) - http://www.bohemiancoding.com/sketch -->
    <title>halo-7</title>
    <desc>Created with Sketch.</desc>
    <defs></defs>
    <g id="Page-1" stroke="none" stroke-width="1" fill="none" fill-rule="evenodd">
        <path d="M531.152088,177.570842 L564.255088,158.792842 C539.054088,111.190842 501.239088,70.4728422 453.965088,42.0348422 C447.467088,52.7758422 440.017088,65.4638422 434.301088,74.7198422 C475.905088,99.7218422 509.127088,135.611842 531.152088,177.570842 M592.800088,232.684842 C580.552088,235.422842 566.239088,238.821842 555.603088,241.097842 C566.340088,288.442842 563.420088,337.267842 548.372088,382.203842 L584.830088,393.118842 C601.754088,341.983842 604.981088,286.501842 592.800088,232.684842 M411.299088,536.827842 L428.462088,570.802842 C477.206088,547.908842 519.682088,512.081842 550.349088,466.214842 C539.935088,459.206842 527.622088,451.155842 518.654088,444.999842 C491.690088,485.366842 454.256088,516.836842 411.299088,536.827842 M219.852088,11.3738422 L229.135088,48.2908422 C274.696088,35.2518422 323.602088,34.5048422 370.423088,47.3398422 C373.169088,36.8138422 377.202088,22.6618422 380.482088,10.5438422 C327.260088,-4.02115783 271.690088,-3.26315783 219.852088,11.3738422 M165.873088,74.7198422 C160.156088,65.4638422 152.704088,52.7758422 146.205088,42.0348422 C98.9180884,70.4728422 61.0940884,111.190842 35.8860884,158.792842 L68.9980884,177.570842 C91.0280884,135.611842 124.259088,99.7218422 165.873088,74.7198422 M44.5400884,241.097842 C33.9020884,238.821842 19.5850884,235.422842 7.33308842,232.684842 C-4.85091158,286.501842 -1.62191158,341.983842 15.3060884,393.118842 L51.7730884,382.203842 C36.7210884,337.267842 33.8000884,288.442842 44.5400884,241.097842 M81.4990884,444.999842 C72.5290884,451.155842 60.2120884,459.206842 49.7960884,466.214842 C80.4710884,512.081842 122.958088,547.908842 171.714088,570.802842 L188.881088,536.827842 C145.913088,516.836842 108.470088,485.366842 81.4990884,444.999842" id="halo-7" fill="#FFCC05"></path>
    </g>
</svg>