<?xml version="1.0" encoding="UTF-8" standalone="no"?>
<svg width="602px" height="573px" viewBox="0 0 602 573" version="1.1" xmlns="http://www.w3.org/2000/svg" xmlns:xlink="http://www.w3.org/1999/xlink">
    <!-- Generator: Sketch 3.7.2 (28276) - http://www.bohemiancoding.com/sketch -->
    <title>halo-x</title>
    <desc>Created with Sketch.</desc>
    <defs></defs>
    <g id="Page-1" stroke="none" stroke-width="1" fill="none" fill-rule="evenodd">
        <path d="M80.1526249,98.033 C134.984625,38.383 213.662625,1 301.071625,1 C388.366625,1 466.952625,38.284 521.774625,97.797 C515.288625,103.646 499.594625,118.488 494.127625,123.872 C446.235625,71.702 377.472625,39 301.071625,39 C224.399625,39 155.419625,71.935 107.506625,124.429 C103.577625,120.166 84.3956249,101.964 80.1526249,98.033 Z M558.451725,147.8002 C599.698725,217.3972 612.854725,303.5142 587.817725,387.3452 C562.813725,471.0652 504.704725,535.8022 432.179725,571.4092 C428.453725,563.5212 418.777725,544.2372 415.203725,537.4582 C478.732725,506.4042 529.651725,449.7822 551.535725,376.5092 C573.497725,302.9752 561.810725,227.4272 525.414725,166.5072 C530.609725,163.9552 553.482725,150.7482 558.451725,147.8002 Z M171.590625,571.5587 C98.6746249,536.5117 39.9756249,472.1407 14.3276249,388.4947 C-11.2853751,304.9587 1.17562491,218.8647 41.7866249,149.0187 C49.2616249,153.5167 68.0066249,164.1997 74.7396249,167.8597 C39.0906249,228.9277 28.1126249,304.2827 50.5296249,377.3947 C73.0266249,450.7657 124.642625,507.1557 188.711625,537.6717 C185.802625,542.6767 174.090625,566.3497 171.590625,571.5587 Z" id="halo-x" stroke="#FF3E3E" stroke-width="2"></path>
    </g>
</svg>