<?xml version="1.0" encoding="UTF-8" standalone="no"?>
<svg width="95px" height="91px" viewBox="0 0 95 91" version="1.1" xmlns="http://www.w3.org/2000/svg" xmlns:xlink="http://www.w3.org/1999/xlink">
    <!-- Generator: Sketch 3.7.1 (28215) - http://www.bohemiancoding.com/sketch -->
    <title>Slice 1</title>
    <desc>Created with Sketch.</desc>
    <defs></defs>
    <g id="Page-1" stroke="none" stroke-width="1" fill="none" fill-rule="evenodd">
        <path d="M27.9394388,89.9680224 C12.0284217,82.5453811 1,66.3897163 1,47.6548673 C1,38.9829622 3.36288183,30.8636573 7.47914613,23.9072465 L7.47914613,23.9072465 L12.4363377,26.8621114 C8.99359439,32.8686743 7.02510157,39.8304895 7.02510157,47.2526702 C7.02510157,63.664032 16.6491994,77.8246347 30.5544687,84.3845857 L27.9394388,89.9680224 L27.9394388,89.9680224 Z M67.6859935,89.7612826 C83.3614808,82.2483791 94.1882376,66.2176339 94.1882376,47.6548673 C94.1882376,38.9920393 91.8302997,30.8806553 87.7220115,23.9290947 L87.7220115,23.9290947 L83.3617382,26.5281507 C86.9241283,32.6100178 88.9664829,39.6925243 88.9664829,47.2526702 C88.9664829,63.7584112 79.2313734,77.987431 65.196791,84.4970063 L67.6859935,89.7612826 L67.6859935,89.7612826 Z M11.6811329,17.927999 C20.2275175,7.58786498 33.1424807,1 47.5941188,1 C62.0571422,1 74.9810686,7.59824926 83.5272957,17.9524447 L79.6368699,21.1892288 C72.1224888,12.0535065 60.7384991,6.22856271 47.9957922,6.22856271 C35.0799841,6.22856271 23.5600583,12.2128375 16.0506293,21.5633637 L11.6811329,17.927999 L11.6811329,17.927999 L11.6811329,17.927999 Z" id="Halo-Copy" stroke="" stroke-width="0.587147887" fill="#FFCC00"></path>
    </g>
</svg>