<?xml version="1.0" encoding="UTF-8" standalone="no"?>
<svg width="601px" height="569px" viewBox="0 0 601 569" version="1.1" xmlns="http://www.w3.org/2000/svg" xmlns:xlink="http://www.w3.org/1999/xlink">
    <!-- Generator: Sketch 3.7.2 (28276) - http://www.bohemiancoding.com/sketch -->
    <title>halo-6</title>
    <desc>Created with Sketch.</desc>
    <defs></defs>
    <g id="Page-1" stroke="none" stroke-width="1" fill="none" fill-rule="evenodd">
        <path d="M491.130341,118.7038 C495.002341,114.3768 513.940341,95.8688 518.130341,91.8708 C472.397341,43.1158 410.709341,9.7048 341.599341,-0.0002 C339.130341,17.4028 337.848341,25.8568 336.057341,37.7508 C396.842341,46.2228 451.068341,75.6918 491.130341,118.7038 M565.207341,155.5538 C549.694341,163.8158 542.108341,167.7628 531.443341,173.3258 C560.423341,227.4258 568.575341,288.6008 557.438341,346.3148 C563.216341,346.8928 589.329341,351.2848 595.028341,352.3138 C607.463341,286.6328 598.098341,217.1058 565.207341,155.5538 M411.651341,534.4938 L428.818341,568.4688 C489.327341,540.0568 540.178341,491.7258 570.781341,429.0058 C554.995341,421.2758 547.352341,417.4418 536.595341,412.0598 C509.739341,467.2448 464.944341,509.6988 411.651341,534.4938 M82.6473411,91.8708 C86.8373411,95.8688 105.775341,114.3768 109.647341,118.7038 C149.709341,75.6918 203.935341,46.2228 264.720341,37.7508 C262.929341,25.8568 261.647341,17.4028 259.178341,-0.0002 C190.068341,9.7048 128.380341,43.1158 82.6473411,91.8708 M69.3343411,173.3258 C58.6703411,167.7628 51.0843411,163.8158 35.5703411,155.5538 C2.67934107,217.1058 -6.68465893,286.6328 5.74934107,352.3138 C11.4493411,351.2848 37.5623411,346.8928 43.3393411,346.3148 C32.2023411,288.6008 40.3543411,227.4258 69.3343411,173.3258 M64.1823411,412.0598 C53.4253411,417.4418 45.7823411,421.2758 29.9963411,429.0058 C60.5993411,491.7258 111.450341,540.0568 171.959341,568.4688 L189.126341,534.4938 C135.833341,509.6988 91.0383411,467.2448 64.1823411,412.0598" id="halo-6" fill="#FFCC05"></path>
    </g>
</svg>