<?xml version="1.0" encoding="UTF-8" standalone="no"?>
<svg width="600px" height="572px" viewBox="0 0 600 572" version="1.1" xmlns="http://www.w3.org/2000/svg" xmlns:xlink="http://www.w3.org/1999/xlink">
    <!-- Generator: Sketch 3.7.2 (28276) - http://www.bohemiancoding.com/sketch -->
    <title>halo-5</title>
    <desc>Created with Sketch.</desc>
    <defs></defs>
    <g id="Page-1" stroke="none" stroke-width="1" fill="none" fill-rule="evenodd">
        <path d="M553.262118,369.9432 C552.525118,372.5952 551.744118,375.2442 550.918118,377.8912 C528.101118,451.0452 475.995118,507.0332 411.406118,537.0842 C414.323118,542.1042 426.066118,565.8372 428.573118,571.0592 C502.082118,536.5422 561.339118,472.6282 587.352118,389.2292 C588.290118,386.2232 589.177118,383.2142 590.015118,380.2012 C575.054118,375.8912 571.114118,374.8942 562.669118,372.5692 L553.262118,369.9432 Z M561.736118,298.4952 C567.517118,297.9502 593.987118,297.2312 599.778118,297.1422 C599.235118,215.9342 566.029118,135.3512 501.202118,76.7892 C498.866118,74.6782 496.505118,72.6112 494.121118,70.5882 C483.941118,82.3652 481.384118,85.5262 475.736118,92.2162 L469.408118,99.6622 C471.507118,101.4422 473.585118,103.2622 475.642118,105.1202 C532.506118,156.4882 561.512118,227.2582 561.736118,298.4952 L561.736118,298.4952 Z M425.277118,26.9242 C422.430118,25.6302 419.554118,24.3752 416.649118,23.1612 C336.040118,-10.5178 248.990118,-6.2068 175.298118,27.9182 C177.687118,33.1952 188.320118,57.4462 190.290118,62.9082 C254.827118,32.7452 331.209118,28.8172 401.916118,58.3602 C404.474118,59.4282 407.006118,60.5332 409.511118,61.6732 L413.550118,52.7702 C417.194118,44.8122 418.964118,41.1502 425.277118,26.9242 L425.277118,26.9242 Z M124.644118,105.1202 C126.701118,103.2622 128.779118,101.4422 130.878118,99.6622 L124.550118,92.2172 C118.902118,85.5262 116.345118,82.3652 106.165118,70.5882 C103.781118,72.6112 101.420118,74.6782 99.0841183,76.7892 C34.2571183,135.3512 1.05111828,215.9342 0.508118284,297.1422 C6.29911828,297.2312 32.7691183,297.9502 38.5501183,298.4952 C38.7741183,227.2582 67.7801183,156.4882 124.644118,105.1202 L124.644118,105.1202 Z M49.3681183,377.8912 C48.5421183,375.2442 47.7611183,372.5952 47.0241183,369.9432 L37.6151183,372.5692 C29.1721183,374.8942 25.2311183,375.8912 10.2711183,380.2012 C11.1091183,383.2142 11.9961183,386.2232 12.9341183,389.2292 C38.9471183,472.6282 98.2041183,536.5422 171.713118,571.0592 C174.220118,565.8372 185.963118,542.1042 188.881118,537.0842 C124.292118,507.0332 72.1861183,451.0452 49.3681183,377.8912 L49.3681183,377.8912 Z" id="halo-5" fill="#FFCC05"></path>
    </g>
</svg>