<?xml version="1.0" encoding="UTF-8" standalone="no"?>
<svg width="600px" height="568px" viewBox="0 0 600 568" version="1.1" xmlns="http://www.w3.org/2000/svg" xmlns:xlink="http://www.w3.org/1999/xlink">
    <!-- Generator: Sketch 3.7.2 (28276) - http://www.bohemiancoding.com/sketch -->
    <title>halo-4</title>
    <desc>Created with Sketch.</desc>
    <defs></defs>
    <g id="Page-1" stroke="none" stroke-width="1" fill="none" fill-rule="evenodd">
        <path d="M599.79655,293.8105 C599.79455,293.6325 599.79255,293.4535 599.78955,293.2755 C588.77955,293.2525 576.42555,293.9385 561.60955,293.8385 C561.95255,320.1385 558.30055,346.9295 550.23255,373.4235 C527.87655,446.8345 476.10055,503.2445 411.66455,533.7615 C414.61655,538.7705 426.52255,562.4615 429.06455,567.6745 C502.39855,532.6265 561.27855,468.2315 586.76455,384.5415 C595.96255,354.3375 600.14755,323.7975 599.79655,293.8105 M515.49655,146.6035 C531.44655,169.2445 543.29555,193.5485 551.19755,218.6355 C565.23355,213.9065 577.17755,210.6945 587.62455,207.2285 C587.57155,207.0585 587.51755,206.8885 587.46355,206.7185 C578.41555,178.1275 564.88655,150.4295 546.70355,124.6185 C496.32255,53.1005 420.27155,10.3535 339.67955,0.0005 C338.89755,5.7465 335.00555,31.9715 333.76855,37.6525 C404.49555,46.4845 471.30355,83.8695 515.49655,146.6035 M258.14155,0.3205 C228.50155,4.5815 199.01455,13.4085 170.62955,27.1325 C91.9785501,65.1595 37.5015501,133.1935 14.2015501,210.9895 C19.7355501,212.6985 44.9415501,220.8135 50.3365501,222.9585 C70.5345501,154.6445 118.22655,94.8515 187.21655,61.4955 C212.11555,49.4565 237.98655,41.7335 263.98755,38.0305 C261.60955,23.4165 260.38655,11.1125 258.67055,0.2445 C258.49355,0.2695 258.31755,0.2945 258.14155,0.3205 M49.5485501,373.4235 C41.4825501,346.9295 37.8315501,320.1385 38.1755501,293.8385 C23.3645501,293.9385 11.0145501,293.2525 0.00855009958,293.2755 C0.00555009958,293.4535 0.00355009958,293.6325 0.00155009958,293.8105 C-0.3494499,323.7975 3.8345501,354.3375 13.0295501,384.5415 C38.5065501,468.2315 97.3645501,532.6265 170.67155,567.6745 C173.21255,562.4615 185.11355,538.7705 188.06555,533.7615 C123.65255,503.2445 71.8955501,446.8345 49.5485501,373.4235" id="halo-4" fill="#FFCC05"></path>
    </g>
</svg>